<svg width="24" height="24" fill="none" xmlns="http://www.w3.org/2000/svg" class="ui-e2" 
style="color: rgb(0, 26, 52);">
<path class="border" d="M17.282 1C21.34 1 23.999 4.147 24 8.5c0 4.287-3.168 8.376-10.8 14.1l-1.2.9-1.2-.9C3.168 16.876 0 12.787 0 8.5 0 4.147 2.659 1 6.718 1 8.734 1 10.64 1.806 12 3.177A7.455 7.455 0 0117.282 1z" fill="#fff"></path>
<path class="background" d="M17.282 2C20.862 2 23 4.8 23 8.5c0 3.816-2.885 7.664-10.4 13.3l-.6.45-.6-.45C3.886 16.164 1 12.317 1 8.5 1 4.8 3.139 2 6.718 2 8.884 2 10.864 3.069 12 4.742 13.136 3.069 15.115 2 17.282 2z" fill="#F91155"></path></svg>